<?xml version="1.0" encoding="UTF-8" standalone="no"?>
<!-- Created with Inkscape (http://www.inkscape.org/) -->

<svg
   xmlns:dc="http://purl.org/dc/elements/1.1/"
   xmlns:cc="http://creativecommons.org/ns#"
   xmlns:rdf="http://www.w3.org/1999/02/22-rdf-syntax-ns#"
   xmlns:svg="http://www.w3.org/2000/svg"
   xmlns="http://www.w3.org/2000/svg"
   xmlns:xlink="http://www.w3.org/1999/xlink"
   xmlns:sodipodi="http://sodipodi.sourceforge.net/DTD/sodipodi-0.dtd"
   xmlns:inkscape="http://www.inkscape.org/namespaces/inkscape"
   version="1.1"
   width="108"
   height="67"
   viewBox="0 0 108 67"
   id="svg3048"
   xml:space="preserve"
   inkscape:version="0.48.1 r9760"
   sodipodi:docname="button_01.svg"><sodipodi:namedview
   pagecolor="#ffffff"
   bordercolor="#666666"
   borderopacity="1"
   objecttolerance="10"
   gridtolerance="10"
   guidetolerance="10"
   inkscape:pageopacity="0"
   inkscape:pageshadow="2"
   inkscape:window-width="1455"
   inkscape:window-height="670"
   id="namedview3055"
   showgrid="false"
   inkscape:zoom="3.91"
   inkscape:cx="-12.07"
   inkscape:cy="39.63"
   inkscape:window-x="67"
   inkscape:window-y="51"
   inkscape:window-maximized="0"
   inkscape:current-layer="svg3048" /><metadata
   id="metadata3071"><rdf:RDF><cc:Work
       rdf:about=""><dc:format>image/svg+xml</dc:format><dc:type
         rdf:resource="http://purl.org/dc/dcmitype/StillImage" /><dc:title /></cc:Work></rdf:RDF></metadata>
<defs
   id="defs3050"><linearGradient
   x1="54"
   y1="3"
   x2="54"
   y2="64"
   id="linearGradient3889"
   gradientUnits="userSpaceOnUse">
		<stop
   id="stop3891"
   style="stop-color:#e7e7e1;stop-opacity:1"
   offset="0" />
		<stop
   id="stop3893"
   style="stop-color:#cccbbb;stop-opacity:1"
   offset="1" />
	</linearGradient>
</defs>
<g
   id="g3052">
	<path
   d="m 107,58 c 0,4.418 -3.582,8 -8,8 H 9 C 4.582,66 1,62.418 1,58 V 9 C 1,4.582 4.582,1 9,1 h 90 c 4.418,0 8,3.582 8,8 v 49 z"
   id="path3054"
   style="fill:#ffffff" />
	<path
   d="m 107,58 c 0,4.418 -3.582,8 -8,8 H 9 C 4.582,66 1,62.418 1,58 V 9 C 1,4.582 4.582,1 9,1 h 90 c 4.418,0 8,3.582 8,8 v 49 z"
   id="path3056"
   style="fill:none;stroke:#8f8b88;stroke-width:2;stroke-miterlimit:10" />
</g>
<g
   id="g3058">
	<linearGradient
   x1="54"
   y1="3"
   x2="54"
   y2="64"
   id="SVGID_3_"
   xlink:href="#linearGradient3889"
   gradientUnits="userSpaceOnUse">
		<stop
   id="stop3061"
   style="stop-color:#e7e7e1;stop-opacity:1"
   offset="0" />
		<stop
   id="stop3063"
   style="stop-color:#cccbbb;stop-opacity:1"
   offset="1" />
	</linearGradient>
	<path
   d="m 105,58 c 0,3.313 -2.687,6 -6,6 H 9 C 5.687,64 3,61.313 3,58 V 9 C 3,5.687 5.687,3 9,3 h 90 c 3.313,0 6,2.687 6,6 v 49 z"
   id="path3065"
   style="fill:url(#SVGID_3_);fill-opacity:1" />
</g>
<text
   x="39.603516"
   y="35.763672"
   id="text3067"
   style="font-size:12px;font-style:normal;font-variant:normal;font-weight:normal;font-stretch:normal;text-align:center;line-height:125%;writing-mode:lr-tb;text-anchor:middle;font-family:Arial;-inkscape-font-specification:Arial"
   sodipodi:linespacing="125%"><tspan
     sodipodi:role="line"
     id="tspan3014"
     x="39.603516"
     y="35.763672">$T</tspan></text>





<rect
   style="fill:#0000ff;fill-opacity:0;fill-rule:evenodd;stroke:none"
   id="rect3570"
   width="12"
   height="12"
   x="80"
   y="29"
   inkscape:label="anchor_2" /></svg>