<?xml version="1.0" encoding="utf-8"?>
<!-- Generator: Adobe Illustrator 15.0.0, SVG Export Plug-In . SVG Version: 6.00 Build 0)  -->
<!DOCTYPE svg PUBLIC "-//W3C//DTD SVG 1.1//EN" "http://www.w3.org/Graphics/SVG/1.1/DTD/svg11.dtd">
<svg version="1.1" id="Layer_1" xmlns="http://www.w3.org/2000/svg" xmlns:xlink="http://www.w3.org/1999/xlink" x="0px" y="0px"
	 width="39.69px" height="34.02px" viewBox="0 0 39.69 34.02" enable-background="new 0 0 39.69 34.02" xml:space="preserve">
<g>
	<g>
		<linearGradient id="SVGID_1_" gradientUnits="userSpaceOnUse" x1="20.2222" y1="33.5596" x2="20.2222" y2="1.8687">
			<stop  offset="0" style="stop-color:#1C0C43"/>
			<stop  offset="0.2247" style="stop-color:#202257"/>
			<stop  offset="0.5" style="stop-color:#22356A"/>
			<stop  offset="0.5" style="stop-color:#25487D"/>
		</linearGradient>
		<path fill="url(#SVGID_1_)" d="M27.195,5.783c-5.221-5.22-13.683-5.22-18.904,0c-5.218,5.222-5.218,13.684,0,18.901
			c4.502,4.508,11.414,5.114,16.58,1.85l7.024,7.025l4.171-4.169l-7.024-7.024C32.309,17.2,31.698,10.288,27.195,5.783z
			 M24.264,21.754c-3.602,3.599-9.439,3.599-13.037,0c-3.602-3.6-3.602-9.437,0-13.035c3.598-3.604,9.436-3.604,13.037,0
			C27.861,12.317,27.861,18.154,24.264,21.754z"/>
	</g>
	<linearGradient id="SVGID_2_" gradientUnits="userSpaceOnUse" x1="17.8618" y1="16.9355" x2="17.8618" y2="13.6592">
		<stop  offset="0" style="stop-color:#1C0C43"/>
		<stop  offset="0.2247" style="stop-color:#202257"/>
		<stop  offset="0.5" style="stop-color:#22356A"/>
		<stop  offset="0.5" style="stop-color:#25487D"/>
	</linearGradient>
	<rect x="11.565" y="13.659" fill="url(#SVGID_2_)" width="12.593" height="3.276"/>
</g>
</svg>
