<?xml version="1.0" encoding="iso-8859-1"?>
<!-- Generator: Adobe Illustrator 15.0.0, SVG Export Plug-In . SVG Version: 6.00 Build 0)  -->
<!DOCTYPE svg PUBLIC "-//W3C//DTD SVG 1.1//EN" "http://www.w3.org/Graphics/SVG/1.1/DTD/svg11.dtd">
<svg version="1.1"
	 id="svgButtonBackDown" xmlns:sodipodi="http://sodipodi.sourceforge.net/DTD/sodipodi-0.dtd" xmlns:svg="http://www.w3.org/2000/svg" sodipodi:docname="New document 5" xmlns:rdf="http://www.w3.org/1999/02/22-rdf-syntax-ns#" xmlns:cc="http://creativecommons.org/ns#" inkscape:version="0.48.2 r9819" xmlns:dc="http://purl.org/dc/elements/1.1/" xmlns:inkscape="http://www.inkscape.org/namespaces/inkscape"
	 xmlns="http://www.w3.org/2000/svg" xmlns:xlink="http://www.w3.org/1999/xlink" x="0px" y="0px" width="72px" height="30px"
	 viewBox="0 0 72 30" style="enable-background:new 0 0 72 30;" xml:space="preserve">
<linearGradient id="path3299_1_1__1" gradientUnits="userSpaceOnUse" x1="496.4141" y1="553.9893" x2="496.4141" y2="581.0859" gradientTransform="matrix(1 0 0 1 -460.415 -553.0215)">
	<stop  offset="0" style="stop-color:#687A90"/>
	<stop  offset="0.5" style="stop-color:#5877A2"/>
	<stop  offset="0.5" style="stop-color:#486A9A"/>
	<stop  offset="1" style="stop-color:#2C4364"/>
</linearGradient>
<path id="path3299_1" inkscape:connector-curvature="0" style="fill:url(#path3299_1_1__1);" d="M71,24.257
	c0,2.103-1.801,3.808-4.021,3.808H13.058c-2.075,0-12.059-12.479-12.059-13.311c0-0.862,9.667-13.786,12.059-13.786h53.922
	c2.22,0,4.021,1.705,4.021,3.808V24.257z"/>
<linearGradient id="path3322_1_1__1" gradientUnits="userSpaceOnUse" x1="496.415" y1="582.0527" x2="496.415" y2="553.0225" gradientTransform="matrix(1 0 0 1 -460.415 -553.0215)">
	<stop  offset="0" style="stop-color:#385174"/>
	<stop  offset="0.2967" style="stop-color:#385174"/>
	<stop  offset="0.7363" style="stop-color:#586B86"/>
	<stop  offset="0.7778" style="stop-color:#556781"/>
	<stop  offset="0.8386" style="stop-color:#4F5E73"/>
	<stop  offset="0.9112" style="stop-color:#434E5D"/>
	<stop  offset="0.9924" style="stop-color:#333941"/>
	<stop  offset="1" style="stop-color:#31373F"/>
</linearGradient>
<path id="path3322_1" inkscape:connector-curvature="0" style="fill:url(#path3322_1_1__1);" d="M66.98,0.968
	c2.221,0,4.02,1.705,4.02,3.808v19.481c0,2.103-1.799,3.808-4.02,3.808H13.059C10.985,28.064,1,15.586,1,14.754
	c0-0.862,9.5-13.786,12.417-13.786H66.98 M66.98,0H13.5C9.583,0,0,13.739,0,14.754c0,1.059,9.5,14.277,13.058,14.277H66.98
	c2.768,0,5.02-2.144,5.02-4.774V4.776C72,2.143,69.748,0,66.98,0L66.98,0z"/>
<path id="path3324_1" inkscape:connector-curvature="0" style="fill:#9DADC1;" d="M67.793,28.954
	c-0.264,0.051-0.535,0.077-0.812,0.077H13.059c-0.555,0-1.855,0-7.578-6.693c-1.465-1.715-4.652-5.536-5.34-7.105
	C0.053,15.435,0,15.604,0,15.723c0,1.059,3.833,5.654,5.479,7.584C11.203,30,12.503,30,13.058,30h53.921
	C69.748,30,72,27.857,72,25.225v-0.968C72,26.625,70.173,28.581,67.793,28.954z"/>
<text id="text3330_1" transform="matrix(1 0 0 1 13.0005 18.3184)" style="opacity:0.5;fill:#5D6876;enable-background:new    ; font-family:'Helvetica-Bold'; font-size:12;">$T</text>
<text id="text3334_1" transform="matrix(1 0 0 1 13.0005 19.3184)" style="fill:#FFFFFF; font-family:'Helvetica-Bold'; font-size:12;">$T</text>
</svg>
