<?xml version="1.0" encoding="UTF-8" standalone="no"?>
<!-- Generator: Adobe Illustrator 15.0.0, SVG Export Plug-In . SVG Version: 6.00 Build 0)  -->

<svg
   xmlns:dc="http://purl.org/dc/elements/1.1/"
   xmlns:cc="http://creativecommons.org/ns#"
   xmlns:rdf="http://www.w3.org/1999/02/22-rdf-syntax-ns#"
   xmlns:svg="http://www.w3.org/2000/svg"
   xmlns="http://www.w3.org/2000/svg"
   xmlns:sodipodi="http://sodipodi.sourceforge.net/DTD/sodipodi-0.dtd"
   xmlns:inkscape="http://www.inkscape.org/namespaces/inkscape"
   version="1.1"
   id="svgButtonBack"
   sodipodi:docname="button_back.svg"
   inkscape:version="0.48.2 r9819"
   x="0px"
   y="0px"
   width="72px"
   height="30px"
   viewBox="0 0 72 30"
   style="enable-background:new 0 0 72 30;"
   xml:space="preserve"><metadata
   id="metadata38"><rdf:RDF><cc:Work
       rdf:about=""><dc:format>image/svg+xml</dc:format><dc:type
         rdf:resource="http://purl.org/dc/dcmitype/StillImage" /></cc:Work></rdf:RDF></metadata><defs
   id="defs36" />
<sodipodi:namedview
   inkscape:window-y="20"
   inkscape:window-maximized="0"
   fit-margin-bottom="0"
   inkscape:window-width="1265"
   inkscape:window-height="986"
   inkscape:window-x="20"
   showgrid="false"
   fit-margin-top="0"
   fit-margin-left="0"
   fit-margin-right="0"
   inkscape:zoom="2.8"
   pagecolor="#ffffff"
   bordercolor="#666666"
   borderopacity="1.0"
   inkscape:pageopacity="0.0"
   inkscape:pageshadow="2"
   id="base"
   inkscape:current-layer="layer1"
   inkscape:document-units="px"
   inkscape:cx="28.142857"
   inkscape:cy="-27.857142">
	</sodipodi:namedview>
		<linearGradient
   id="path3299_1_"
   gradientUnits="userSpaceOnUse"
   x1="580.4143"
   y1="72.0104"
   x2="580.4143"
   y2="44.9132"
   gradientTransform="matrix(1,0,0,-1,-544.416,72.9783)">
			<stop
   offset="0"
   style="stop-color:#8EA4C1"
   id="stop6" />
			<stop
   offset="0.5"
   style="stop-color:#5877A2"
   id="stop8" />
			<stop
   offset="0.5"
   style="stop-color:#486A9A"
   id="stop10" />
			<stop
   offset="1"
   style="stop-color:#4B6C9C"
   id="stop12" />
		</linearGradient>
		<path
   id="path3299"
   inkscape:connector-curvature="0"
   style="fill:url(#path3299_1_)"
   d="m 70.999,24.257 c 0,2.103 -1.8,3.808 -4.02,3.808 H 13.057 c -2.075,0 -12.059,-12.479 -12.059,-13.311 0,-0.862 9.667,-13.7859999 12.059,-13.7859999 h 53.922 c 2.22,0 4.02,1.705 4.02,3.808 V 24.257 z" />
		
			<linearGradient
   id="path3322_1_"
   gradientUnits="userSpaceOnUse"
   x1="580.4153"
   y1="43.9464"
   x2="580.4153"
   y2="72.9781"
   gradientTransform="matrix(1,0,0,-1,-544.416,72.9783)">
			<stop
   offset="0"
   style="stop-color:#385174"
   id="stop16" />
			<stop
   offset="0.2967"
   style="stop-color:#385174"
   id="stop18" />
			<stop
   offset="0.7363"
   style="stop-color:#586B86"
   id="stop20" />
			<stop
   offset="0.7778"
   style="stop-color:#556781"
   id="stop22" />
			<stop
   offset="0.8386"
   style="stop-color:#4F5E73"
   id="stop24" />
			<stop
   offset="0.9112"
   style="stop-color:#434E5D"
   id="stop26" />
			<stop
   offset="0.9924"
   style="stop-color:#333941"
   id="stop28" />
			<stop
   offset="1"
   style="stop-color:#31373F"
   id="stop30" />
		</linearGradient>
		<path
   id="path3322"
   inkscape:connector-curvature="0"
   style="fill:url(#path3322_1_)"
   d="m 66.98,0.9680001 c 2.221,0 4.02,1.705 4.02,3.808 V 24.257 c 0,2.103 -1.799,3.808 -4.02,3.808 H 13.058 C 10.984,28.065 1,15.586 1,14.754 1,13.892 10.5,0.9680001 13.417,0.9680001 H 66.98 M 66.98,1.0000001e-7 H 13.5 C 9.583,1.0000001e-7 0,13.739 0,14.754 0,15.813 9.5,29.032 13.058,29.032 H 66.98 c 2.768,0 5.02,-2.144 5.02,-4.775 V 4.7760001 C 71.999,2.1430001 69.747,1.0000001e-7 66.98,1.0000001e-7 l 0,0 z" />
		<path
   id="path3324"
   inkscape:connector-curvature="0"
   style="fill:#9dadc1"
   d="m 67.792,28.954 c -0.263,0.051 -0.535,0.078 -0.812,0.078 H 13.058 c -0.555,0 -1.855,0 -7.578,-6.694 C 4.015,20.623 0.828,16.802 0.14,15.233 0.052,15.435 0,15.604 0,15.723 0,16.781 3.833,21.377 5.479,23.307 11.202,30 12.502,30 13.057,30 h 53.921 c 2.769,0 5.021,-2.143 5.021,-4.775 v -0.968 c 0,2.368 -1.827,4.324 -4.207,4.697 z" />
		
			<text
   id="text3330"
   style="font-size:12px;opacity:0.5;fill:#5d6876;enable-background:new;font-family:Helvetica-Bold"
   x="12.9998"
   y="18.318499">$T</text>

		
			<text
   id="text3334"
   style="font-size:12px;fill:#ffffff;font-family:Helvetica-Bold"
   x="12.9998"
   y="19.318499">$T</text>

</svg>