<?xml version="1.0" encoding="UTF-8" standalone="no"?>
<!-- Generator: Adobe Illustrator 15.0.0, SVG Export Plug-In . SVG Version: 6.00 Build 0)  -->

<svg
   xmlns:dc="http://purl.org/dc/elements/1.1/"
   xmlns:cc="http://creativecommons.org/ns#"
   xmlns:rdf="http://www.w3.org/1999/02/22-rdf-syntax-ns#"
   xmlns:svg="http://www.w3.org/2000/svg"
   xmlns="http://www.w3.org/2000/svg"
   xmlns:sodipodi="http://sodipodi.sourceforge.net/DTD/sodipodi-0.dtd"
   xmlns:inkscape="http://www.inkscape.org/namespaces/inkscape"
   version="1.1"
   id="Layer_1"
   inkscape:version="0.48.1 r9760"
   sodipodi:docname="squad_selector.svg"
   x="0px"
   y="0px"
   width="236.2"
   height="233.1"
   viewBox="0 0 236.2 233.1"
   enable-background="new 0 0 10 10"
   xml:space="preserve"><metadata
   id="metadata3185"><rdf:RDF><cc:Work
       rdf:about=""><dc:format>image/svg+xml</dc:format><dc:type
         rdf:resource="http://purl.org/dc/dcmitype/StillImage" /></cc:Work></rdf:RDF></metadata><defs
   id="defs3183" />
<sodipodi:namedview
   id="namedview15"
   inkscape:window-height="884"
   pagecolor="#ffffff"
   bordercolor="#666666"
   borderopacity="1"
   objecttolerance="10"
   gridtolerance="10"
   guidetolerance="10"
   inkscape:pageopacity="0"
   inkscape:pageshadow="2"
   inkscape:window-width="1324"
   showgrid="false"
   fit-margin-top="0"
   fit-margin-left="0"
   fit-margin-right="0"
   fit-margin-bottom="0"
   inkscape:zoom="2"
   inkscape:cx="49.11"
   inkscape:cy="136.3"
   inkscape:window-x="0"
   inkscape:window-y="0"
   inkscape:window-maximized="0"
   inkscape:current-layer="Layer_1">
	</sodipodi:namedview>





<rect
   style="fill:#001d99;fill-opacity:0;stroke:none"
   id="rect2987"
   width="9.661"
   height="9.661"
   x="115"
   y="-2.949e-06"
   inkscape:label="anchor1" /><rect
   style="fill:#001d99;fill-opacity:0;stroke:none"
   id="rect2987-2"
   width="9.661"
   height="9.661"
   x="226.5"
   y="109.8"
   inkscape:label="anchor2" /><rect
   style="fill:#001d99;fill-opacity:0;stroke:none"
   id="rect2987-7"
   width="9.661"
   height="9.661"
   x="115"
   y="223.4"
   inkscape:label="anchor3" /><rect
   style="fill:#001d99;fill-opacity:0;stroke:none"
   id="rect2987-74"
   width="9.661"
   height="9.661"
   x="0"
   y="109.8"
   inkscape:label="anchor4" /><path
   style="fill:#727272;fill-opacity:0.149;stroke:#000000;stroke-width:1.1362;stroke-opacity:0.2876"
   d="m 119.8,31.37 c -47.05,0 -85.22,38.2 -85.22,85.33 0,47.1 38.06,85.3 85.22,85.3 47,0 85.2,-38.2 85.2,-85.3 0,-47.13 -38.2,-85.33 -85.2,-85.33 z m 0,13.06 c 39.9,0 72.3,32.33 72.3,72.27 0,39.9 -32.4,72.2 -72.3,72.2 -39.89,0 -72.39,-32.3 -72.39,-72.2 0,-39.95 32.5,-72.28 72.39,-72.28 z"
   id="path3763"
   inkscape:connector-curvature="0" /></svg>